REM DIRINDEX 1\2,1\3\7,1\3\8,1\4\9,1\4\10,1\4\11,1\5\12,1\5\13,1\5\14,1\6\15,1\6\16,1\6\17
REM DIRNAME "folder01","folder02","folder03","folder04","folder05","folder06","folder07","folder08","folder09","folder10","folder11","folder12","folder13","folder14","folder15","folder16","folder17"
TITLE ""
FILE "2Q_t_1270-1286.mp3" MP3
  TRACK 01 AUDIO
    TITLE "0:"
    INDEX 01 00:00:00
  TRACK 02 AUDIO
    TITLE "7:cjc174_4338"
    INDEX 01 00:00:12
  TRACK 03 AUDIO
    TITLE "0:"
    INDEX 01 00:01:23
  TRACK 04 AUDIO
    TITLE "8:cjc174_4339"
    INDEX 01 00:01:72
  TRACK 05 AUDIO
    TITLE "0:"
    INDEX 01 00:04:14
  TRACK 06 AUDIO
    TITLE "7:cjc174_4340"
    INDEX 01 00:04:63
  TRACK 07 AUDIO
    TITLE "0:"
    INDEX 01 00:05:62
  TRACK 08 AUDIO
    TITLE "8:cjc174_4341"
    INDEX 01 00:06:36
  TRACK 09 AUDIO
    TITLE "0:"
    INDEX 01 00:08:16
  TRACK 10 AUDIO
    TITLE "7:cjc174_4342"
    INDEX 01 00:08:61
  TRACK 11 AUDIO
    TITLE "0:"
    INDEX 01 00:09:74
  TRACK 12 AUDIO
    TITLE "8:cjc174_4343"
    INDEX 01 00:10:50
  TRACK 13 AUDIO
    TITLE "0:"
    INDEX 01 00:11:69
  TRACK 14 AUDIO
    TITLE "7:cjc174_4344"
    INDEX 01 00:12:41
  TRACK 15 AUDIO
    TITLE "0:"
    INDEX 01 00:13:52
  TRACK 16 AUDIO
    TITLE "8:cjc174_4345"
    INDEX 01 00:14:24
  TRACK 17 AUDIO
    TITLE "0:"
    INDEX 01 00:17:28
  TRACK 18 AUDIO
    TITLE "7:cjc174_4346"
    INDEX 01 00:18:00
  TRACK 19 AUDIO
    TITLE "0:"
    INDEX 01 00:19:33
  TRACK 20 AUDIO
    TITLE "8:cjc174_4347"
    INDEX 01 00:20:09
  TRACK 21 AUDIO
    TITLE "0:"
    INDEX 01 00:22:51
  TRACK 22 AUDIO
    TITLE "7:cjc174_4348"
    INDEX 01 00:23:21
  TRACK 23 AUDIO
    TITLE "0:"
    INDEX 01 00:24:26
  TRACK 24 AUDIO
    TITLE "8:cjc174_4349"
    INDEX 01 00:25:12
  TRACK 25 AUDIO
    TITLE "0:"
    INDEX 01 00:28:01
  TRACK 26 AUDIO
    TITLE "7:cjc174_4350"
    INDEX 01 00:28:46
  TRACK 27 AUDIO
    TITLE "0:"
    INDEX 01 00:29:67
  TRACK 28 AUDIO
    TITLE "8:cjc174_4351"
    INDEX 01 00:30:41
  TRACK 29 AUDIO
    TITLE "0:"
    INDEX 01 00:32:53
  TRACK 30 AUDIO
    TITLE "7:cjc174_4352"
    INDEX 01 00:33:23
  TRACK 31 AUDIO
    TITLE "0:"
    INDEX 01 00:34:29
  TRACK 32 AUDIO
    TITLE "8:cjc174_4353"
    INDEX 01 00:35:01
  TRACK 33 AUDIO
    TITLE "0:"
    INDEX 01 00:36:61
  TRACK 34 AUDIO
    TITLE "7:cjc174_4354"
    INDEX 01 00:37:31
  TRACK 35 AUDIO
    TITLE "0:"
    INDEX 01 00:38:70
  TRACK 36 AUDIO
    TITLE "8:cjc174_4355"
    INDEX 01 00:39:42
  TRACK 37 AUDIO
    TITLE "0:"
    INDEX 01 00:40:67
  TRACK 38 AUDIO
    TITLE "7:cjc174_4356"
    INDEX 01 00:41:37
  TRACK 39 AUDIO
    TITLE "0:"
    INDEX 01 00:42:32
  TRACK 40 AUDIO
    TITLE "8:cjc174_4357"
    INDEX 01 00:43:16
  TRACK 41 AUDIO
    TITLE "0:"
    INDEX 01 00:44:55
  TRACK 42 AUDIO
    TITLE "7:cjc174_4358"
    INDEX 01 00:45:25
  TRACK 43 AUDIO
    TITLE "0:"
    INDEX 01 00:46:30
  TRACK 44 AUDIO
    TITLE "8:cjc174_4359"
    INDEX 01 00:47:02
  TRACK 45 AUDIO
    TITLE "0:"
    INDEX 01 00:48:62
  TRACK 46 AUDIO
    TITLE "7:cjc174_4360"
    INDEX 01 00:49:32
  TRACK 47 AUDIO
    TITLE "0:"
    INDEX 01 00:50:40
  TRACK 48 AUDIO
    TITLE "8:cjc174_4361"
    INDEX 01 00:51:12
  TRACK 49 AUDIO
    TITLE "0:"
    INDEX 01 00:53:03
  TRACK 50 AUDIO
    TITLE "7:cjc174_4362"
    INDEX 01 00:53:48
  TRACK 51 AUDIO
    TITLE "0:"
    INDEX 01 00:55:03
  TRACK 52 AUDIO
    TITLE "8:cjc174_4363"
    INDEX 01 00:55:54
  TRACK 53 AUDIO
    TITLE "0:"
    INDEX 01 00:58:14
  TRACK 54 AUDIO
    TITLE "2:cjc174_4364"
    INDEX 01 00:58:59
  TRACK 55 AUDIO
    TITLE "0:"
    INDEX 01 01:00:05
  TRACK 56 AUDIO
    TITLE "7:cjc174_4365"
    INDEX 01 01:00:50
  TRACK 57 AUDIO
    TITLE "0:"
    INDEX 01 01:01:71
  TRACK 58 AUDIO
    TITLE "8:cjc174_4366"
    INDEX 01 01:02:45
  TRACK 59 AUDIO
    TITLE "0:"
    INDEX 01 01:05:39
  TRACK 60 AUDIO
    TITLE "7:cjc174_4367"
    INDEX 01 01:06:11
  TRACK 61 AUDIO
    TITLE "0:"
    INDEX 01 01:07:22
  TRACK 62 AUDIO
    TITLE "8:cjc174_4368"
    INDEX 01 01:07:65
  TRACK 63 AUDIO
    TITLE "0:"
    INDEX 01 01:10:48
  TRACK 64 AUDIO
    TITLE "7:cjc174_4369"
    INDEX 01 01:11:18
  TRACK 65 AUDIO
    TITLE "0:"
    INDEX 01 01:12:25
  TRACK 66 AUDIO
    TITLE "8:cjc174_4370"
    INDEX 01 01:12:74
  TRACK 67 AUDIO
    TITLE "0:"
    INDEX 01 01:15:14
  TRACK 68 AUDIO
    TITLE "7:cjc174_4371"
    INDEX 01 01:15:59
  TRACK 69 AUDIO
    TITLE "0:"
    INDEX 01 01:16:74
  TRACK 70 AUDIO
    TITLE "8:cjc174_4372"
    INDEX 01 01:17:44
  TRACK 71 AUDIO
    TITLE "0:"
    INDEX 01 01:19:02
